<svg width="32" height="33" viewBox="0 0 32 33" fill="none" xmlns="http://www.w3.org/2000/svg">
<path d="M5.33333 24.75H26.6667C27.4 24.75 28 24.1313 28 23.375C28 22.6187 27.4 22 26.6667 22H5.33333C4.6 22 4 22.6187 4 23.375C4 24.1313 4.6 24.75 5.33333 24.75ZM5.33333 17.875H26.6667C27.4 17.875 28 17.2563 28 16.5C28 15.7438 27.4 15.125 26.6667 15.125H5.33333C4.6 15.125 4 15.7438 4 16.5C4 17.2563 4.6 17.875 5.33333 17.875ZM4 9.625C4 10.3812 4.6 11 5.33333 11H26.6667C27.4 11 28 10.3812 28 9.625C28 8.86875 27.4 8.25 26.6667 8.25H5.33333C4.6 8.25 4 8.86875 4 9.625Z" fill="white"/>
</svg>
